<svg id="svg" version="1.1" xmlns="http://www.w3.org/2000/svg" xmlns:xlink="http://www.w3.org/1999/xlink" width="400" height="400" viewBox="0, 0, 400,400"><g id="svgg"><path id="path0" d="M132.071 37.883 L 133.142 38.048 133.184 55.108 C 133.207 64.492,133.365 72.266,133.534 72.385 C 133.703 72.503,134.078 74.310,134.366 76.400 C 134.654 78.490,135.022 80.290,135.183 80.400 C 135.344 80.510,135.796 82.265,136.187 84.300 C 136.579 86.335,137.057 88.000,137.250 88.000 C 137.442 88.000,137.600 88.270,137.600 88.600 C 137.600 89.125,140.000 89.200,156.800 89.200 C 169.333 89.200,176.000 89.061,176.000 88.800 C 176.000 88.537,185.933 88.400,205.000 88.400 C 227.930 88.400,234.001 88.505,234.006 88.900 C 234.010 89.233,234.142 89.200,234.400 88.800 C 234.658 88.400,234.790 88.367,234.794 88.700 C 234.802 89.352,236.677 89.352,236.921 88.700 C 237.166 88.046,238.370 89.524,238.387 90.500 C 238.394 90.885,238.580 91.200,238.800 91.200 C 239.020 91.200,239.200 91.766,239.200 92.458 L 239.200 93.716 242.100 93.416 C 243.695 93.251,246.477 93.149,248.282 93.189 L 251.564 93.261 251.834 91.231 C 251.982 90.114,252.273 89.200,252.480 89.200 C 252.687 89.200,253.147 88.910,253.502 88.555 C 254.244 87.813,266.996 87.872,267.523 88.620 C 267.675 88.836,268.672 89.239,269.737 89.515 C 270.802 89.791,271.923 90.266,272.228 90.571 C 272.533 90.876,273.296 91.352,273.923 91.630 C 274.551 91.908,275.292 92.649,275.570 93.277 C 275.848 93.904,276.283 94.646,276.537 94.924 C 277.349 95.813,278.000 97.165,278.000 97.961 C 278.000 98.386,278.216 98.805,278.481 98.894 C 278.990 99.063,279.507 115.787,279.569 134.100 C 279.586 139.105,279.754 143.200,279.941 143.200 C 280.129 143.200,280.412 149.095,280.569 156.300 C 280.727 163.505,281.018 171.650,281.216 174.400 C 281.414 177.150,281.582 183.405,281.588 188.300 C 281.595 193.195,281.752 197.200,281.938 197.200 C 282.124 197.200,282.395 207.235,282.539 219.500 C 282.959 255.214,283.258 266.964,283.757 267.285 C 284.064 267.483,284.303 273.912,284.537 288.285 C 284.722 299.677,285.031 309.096,285.223 309.214 C 285.817 309.582,285.893 335.302,285.300 335.500 C 285.025 335.591,284.800 336.112,284.800 336.656 C 284.800 337.867,283.968 341.325,283.610 341.600 C 283.467 341.710,283.124 342.835,282.847 344.100 C 282.569 345.365,282.221 346.401,282.071 346.403 C 281.922 346.404,281.493 346.944,281.119 347.603 C 280.744 348.261,280.159 348.800,279.819 348.800 C 279.401 348.800,279.200 349.181,279.200 349.971 C 279.200 350.616,278.975 351.388,278.700 351.687 C 277.302 353.208,277.072 354.501,277.166 360.316 L 277.200 362.432 296.121 362.374 L 315.042 362.316 314.975 358.850 C 314.912 355.561,315.662 351.742,316.483 351.173 C 317.662 350.356,317.754 52.477,316.575 51.685 C 316.342 51.528,315.926 50.377,315.652 49.126 C 315.378 47.875,315.000 46.795,314.811 46.726 C 313.928 46.402,314.199 38.111,315.100 37.877 C 315.485 37.778,274.220 37.701,223.400 37.707 C 172.580 37.713,131.482 37.792,132.071 37.883 M326.492 38.068 C 324.563 39.997,326.247 47.390,328.800 48.200 C 329.688 48.482,331.600 50.361,331.600 50.952 C 331.600 51.150,331.879 51.516,332.219 51.765 C 332.592 52.037,332.933 53.130,333.075 54.509 C 333.206 55.769,333.467 56.800,333.656 56.800 C 333.847 56.800,334.000 120.417,334.000 200.200 C 334.000 279.983,333.847 343.600,333.656 343.600 C 333.467 343.600,333.206 344.631,333.075 345.891 C 332.945 347.151,332.605 348.366,332.319 348.591 C 332.034 348.816,331.532 349.518,331.205 350.152 C 330.877 350.786,330.202 351.490,329.705 351.716 C 329.207 351.943,328.800 352.280,328.800 352.464 C 328.800 352.649,328.575 352.804,328.300 352.809 C 326.603 352.839,326.064 354.095,325.930 358.326 L 325.800 362.452 337.200 362.311 C 343.470 362.233,348.960 362.025,349.400 361.847 C 350.032 361.592,350.074 361.615,349.600 361.956 C 349.124 362.299,349.277 362.389,350.343 362.394 C 351.360 362.399,351.631 362.258,351.460 361.813 C 351.336 361.490,351.407 361.119,351.617 360.989 C 351.828 360.859,352.000 361.047,352.000 361.406 C 352.000 362.192,353.247 362.059,353.519 361.244 C 353.621 360.939,353.539 360.791,353.337 360.915 C 353.135 361.040,352.934 360.705,352.889 360.171 C 352.845 359.637,352.998 359.200,353.228 359.200 C 353.459 359.200,353.536 359.380,353.400 359.600 C 353.264 359.820,353.343 360.000,353.576 360.000 C 353.809 360.000,354.000 359.640,354.000 359.200 C 354.000 358.760,353.824 358.400,353.610 358.400 C 353.357 358.400,353.356 358.041,353.609 357.377 C 354.138 355.984,354.134 44.005,353.604 42.612 C 353.356 41.958,353.358 41.600,353.610 41.600 C 353.824 41.600,354.000 41.420,354.000 41.200 C 354.000 40.980,353.730 40.800,353.400 40.800 C 353.070 40.800,352.800 40.609,352.800 40.376 C 352.800 40.143,352.947 40.044,353.128 40.155 C 353.308 40.267,353.369 39.782,353.264 39.079 C 353.159 38.375,353.000 38.015,352.911 38.278 C 352.821 38.540,352.491 38.656,352.176 38.536 C 351.862 38.415,351.704 38.155,351.826 37.958 C 351.948 37.761,351.396 37.600,350.600 37.600 C 349.549 37.600,349.235 37.737,349.453 38.100 C 349.686 38.487,349.623 38.495,349.177 38.136 C 348.329 37.455,327.169 37.391,326.492 38.068 M313.200 355.800 C 313.200 357.414,313.052 358.000,312.643 358.000 C 311.990 358.000,311.476 356.924,311.980 356.612 C 312.170 356.495,312.232 356.042,312.117 355.606 C 311.867 354.650,312.218 353.600,312.787 353.600 C 313.021 353.600,313.200 354.555,313.200 355.800 M313.071 360.001 C 313.111 360.881,312.976 361.600,312.771 361.600 C 312.567 361.600,312.400 361.409,312.400 361.176 C 312.400 360.943,312.221 360.864,312.001 360.999 C 311.737 361.162,311.734 360.899,311.991 360.223 C 312.253 359.534,312.245 359.200,311.966 359.200 C 311.739 359.200,311.664 359.020,311.800 358.800 C 312.367 357.883,313.004 358.485,313.071 360.001 " stroke="none" fill="#a62ce7" fill-rule="evenodd"></path><path id="path1" d="M315.100 37.876 C 314.199 38.111,313.928 46.402,314.811 46.726 C 315.000 46.795,315.378 47.875,315.652 49.126 C 315.926 50.377,316.342 51.528,316.575 51.685 C 317.737 52.466,317.666 350.315,316.503 351.173 C 315.440 351.957,314.385 360.008,315.097 361.900 C 315.235 362.264,316.683 362.400,320.435 362.400 C 326.413 362.400,325.932 362.836,326.100 357.273 C 326.197 354.036,326.232 353.929,327.400 353.273 C 328.060 352.903,328.690 352.492,328.800 352.360 C 328.910 352.228,329.367 351.927,329.816 351.691 C 330.265 351.455,330.895 350.753,331.216 350.131 C 331.537 349.509,332.034 348.816,332.319 348.591 C 332.605 348.366,332.945 347.151,333.075 345.891 C 333.206 344.631,333.467 343.600,333.656 343.600 C 333.847 343.600,334.000 279.983,334.000 200.200 C 334.000 120.417,333.847 56.800,333.656 56.800 C 333.467 56.800,333.206 55.769,333.075 54.509 C 332.933 53.130,332.592 52.037,332.219 51.765 C 331.879 51.516,331.600 51.150,331.600 50.952 C 331.600 50.361,329.688 48.482,328.800 48.200 C 326.258 47.393,324.563 39.997,326.480 38.080 C 326.957 37.603,316.840 37.421,315.100 37.876 M243.516 93.289 C 242.003 93.603,241.530 93.910,241.118 94.840 C 240.836 95.478,240.424 96.003,240.202 96.006 C 239.961 96.010,239.974 96.130,240.235 96.306 C 241.046 96.854,241.685 100.579,241.899 106.000 C 242.028 109.280,242.286 111.518,242.556 111.700 C 242.865 111.909,242.818 112.131,242.400 112.430 C 241.948 112.755,241.924 112.911,242.300 113.064 C 242.894 113.305,243.049 347.200,242.455 347.200 C 242.266 347.200,241.988 348.396,241.838 349.858 C 241.688 351.320,241.394 352.838,241.184 353.230 C 240.974 353.623,240.771 355.487,240.733 357.372 C 240.695 359.257,240.517 360.800,240.336 360.800 C 240.156 360.800,240.316 361.160,240.693 361.600 C 241.285 362.291,241.868 362.399,244.989 362.394 C 249.669 362.386,249.542 362.507,249.628 357.990 C 249.701 354.169,250.973 351.600,252.791 351.600 C 253.665 351.600,256.716 348.094,257.007 346.754 C 257.168 346.009,257.503 345.272,257.750 345.115 C 258.352 344.733,258.399 105.712,257.798 105.285 C 257.577 105.128,257.150 104.298,256.850 103.440 C 256.280 101.809,253.481 98.809,252.517 98.796 C 251.930 98.788,249.600 96.121,249.600 95.457 C 249.600 95.096,249.420 94.800,249.200 94.800 C 248.980 94.800,248.800 94.541,248.800 94.224 C 248.800 93.141,246.329 92.704,243.516 93.289 " stroke="none" fill="#e7e7e7" fill-rule="evenodd"></path><path id="path2" d="M91.200 87.997 L 104.200 88.217 91.600 88.308 L 79.000 88.400 79.062 90.300 C 79.096 91.345,79.179 110.020,79.247 131.800 C 79.314 153.580,79.427 169.555,79.498 167.300 L 79.628 163.200 92.214 163.200 L 104.800 163.200 104.800 159.000 L 104.800 154.800 113.000 154.800 L 121.200 154.800 121.200 150.600 L 121.200 146.400 133.800 146.400 L 146.400 146.400 146.400 142.200 L 146.400 138.000 158.800 138.000 L 171.200 138.000 171.200 133.800 L 171.200 129.600 183.800 129.600 L 196.400 129.600 196.400 125.400 L 196.400 121.200 204.800 121.200 L 213.200 121.200 213.200 117.200 L 213.200 113.200 225.540 113.200 L 237.881 113.200 238.172 193.700 C 238.348 242.038,238.611 274.253,238.832 274.333 C 239.377 274.531,239.322 349.600,238.777 349.600 C 238.115 349.600,238.358 362.009,239.025 362.265 C 240.314 362.760,241.398 362.248,240.646 361.500 C 240.259 361.115,240.105 360.800,240.304 360.800 C 240.502 360.800,240.695 359.257,240.733 357.372 C 240.771 355.487,240.974 353.623,241.184 353.230 C 241.394 352.838,241.688 351.320,241.838 349.858 C 241.988 348.396,242.266 347.200,242.455 347.200 C 243.049 347.200,242.894 113.305,242.300 113.064 C 241.924 112.911,241.948 112.755,242.400 112.430 C 242.818 112.131,242.865 111.909,242.556 111.700 C 242.286 111.518,242.028 109.280,241.899 106.000 C 241.685 100.579,241.046 96.854,240.235 96.306 C 239.927 96.098,239.932 96.010,240.253 96.006 C 240.503 96.003,240.818 95.685,240.954 95.300 C 241.089 94.915,241.305 94.375,241.434 94.100 C 241.901 93.097,239.961 93.612,238.800 94.800 C 237.587 96.041,236.963 96.285,236.733 95.608 C 236.647 95.354,214.096 95.195,172.821 95.157 C 137.742 95.125,108.546 94.957,107.940 94.783 C 106.287 94.309,105.304 93.183,104.983 91.400 C 104.824 90.520,104.588 89.620,104.458 89.400 C 104.328 89.180,104.216 88.730,104.211 88.400 C 104.201 87.879,102.479 87.799,91.200 87.789 L 78.200 87.778 91.200 87.997 M248.684 94.000 C 248.799 94.440,249.052 94.800,249.247 94.800 C 249.441 94.800,249.600 95.096,249.600 95.457 C 249.600 96.121,251.930 98.788,252.517 98.796 C 253.481 98.809,256.280 101.809,256.850 103.440 C 257.150 104.298,257.577 105.128,257.798 105.285 C 258.399 105.712,258.352 344.733,257.750 345.115 C 257.503 345.272,257.168 346.009,257.007 346.754 C 256.716 348.094,253.665 351.600,252.791 351.600 C 250.973 351.600,249.701 354.169,249.628 357.990 C 249.582 360.420,249.384 361.889,249.078 362.084 C 248.815 362.251,249.534 362.391,250.676 362.394 C 253.441 362.402,253.421 362.454,253.585 354.690 C 253.593 354.300,254.005 353.825,254.500 353.635 C 256.115 353.015,257.866 350.950,258.641 348.753 C 259.058 347.569,259.535 346.540,259.700 346.467 C 260.130 346.276,260.077 104.000,259.647 104.000 C 259.454 104.000,259.093 103.199,258.847 102.219 C 258.414 100.502,255.491 96.800,254.568 96.800 C 254.351 96.800,253.460 95.991,252.587 95.003 C 250.801 92.981,248.246 92.324,248.684 94.000 M232.028 110.736 C 232.342 110.837,232.705 111.081,232.834 111.277 C 232.963 111.473,234.223 111.784,235.634 111.966 L 238.200 112.299 234.300 112.349 L 230.400 112.400 230.430 110.100 L 230.461 107.800 230.958 109.176 C 231.231 109.933,231.713 110.635,232.028 110.736 " stroke="none" fill="#34bced" fill-rule="evenodd"></path><path id="path3" d="M50.400 88.062 C 50.400 88.234,50.133 88.272,49.806 88.147 C 49.419 87.999,49.078 88.269,48.830 88.920 C 48.621 89.471,48.213 90.056,47.925 90.220 C 47.503 90.459,47.498 90.412,47.900 89.979 C 48.474 89.360,48.574 88.000,48.044 88.000 C 47.849 88.000,47.714 88.296,47.744 88.657 C 47.775 89.018,47.530 89.392,47.200 89.487 C 46.738 89.621,46.719 89.577,47.119 89.295 C 47.535 89.002,47.514 88.826,47.010 88.408 C 46.471 87.961,46.421 87.990,46.659 88.609 C 46.848 89.103,46.789 89.241,46.473 89.045 C 46.170 88.858,46.092 88.974,46.247 89.379 C 46.378 89.721,46.659 90.000,46.871 90.000 C 47.084 90.000,46.974 90.283,46.629 90.629 C 45.930 91.327,45.785 92.400,46.390 92.400 C 46.638 92.400,46.630 92.795,46.368 93.484 C 46.141 94.081,46.085 95.026,46.243 95.584 C 46.402 96.143,46.502 96.735,46.466 96.900 C 46.334 97.502,47.021 97.179,47.498 96.415 C 47.908 95.758,47.891 95.667,47.394 95.858 C 47.067 95.983,46.800 95.886,46.800 95.643 C 46.800 95.399,47.115 95.186,47.500 95.168 C 47.945 95.148,48.012 95.061,47.683 94.930 C 47.287 94.770,47.275 94.592,47.632 94.161 C 48.000 93.717,47.957 93.600,47.425 93.600 C 47.055 93.600,46.866 93.417,47.004 93.193 C 47.142 92.970,47.410 92.883,47.600 93.000 C 47.790 93.117,48.075 93.002,48.234 92.745 C 48.415 92.452,48.350 92.384,48.062 92.562 C 47.808 92.719,47.600 92.657,47.600 92.424 C 47.600 92.012,48.186 91.827,49.000 91.981 C 49.220 92.023,49.189 91.842,48.931 91.580 C 48.416 91.055,48.652 90.000,49.286 90.000 C 49.506 90.000,49.589 90.252,49.470 90.561 C 49.349 90.878,49.479 91.088,49.771 91.045 C 50.422 90.950,51.801 89.600,51.248 89.600 C 51.024 89.600,50.656 89.915,50.432 90.300 C 50.208 90.685,50.019 90.809,50.012 90.576 C 49.981 89.500,51.030 88.687,51.650 89.307 C 52.297 89.954,53.600 89.386,53.600 88.456 C 53.600 88.205,53.799 88.000,54.043 88.000 C 54.289 88.000,54.374 88.291,54.234 88.657 C 54.021 89.210,54.079 89.232,54.601 88.800 C 54.941 88.517,55.114 88.181,54.986 88.053 C 54.630 87.696,50.400 87.705,50.400 88.062 M46.028 97.876 C 46.118 98.915,46.744 99.796,46.772 98.924 C 46.787 98.442,46.620 97.936,46.400 97.800 C 46.180 97.664,46.013 97.698,46.028 97.876 M274.249 236.700 C 273.986 333.909,273.865 346.069,273.157 346.333 C 272.961 346.407,272.800 346.739,272.800 347.073 C 272.800 347.667,270.592 350.000,270.030 350.000 C 269.546 350.000,267.349 352.159,267.080 352.900 C 266.940 353.285,266.660 353.600,266.459 353.600 C 266.258 353.600,265.999 353.960,265.884 354.400 C 265.769 354.840,265.849 355.200,266.061 355.200 C 266.273 355.200,266.339 355.375,266.206 355.590 C 266.074 355.804,265.917 356.756,265.858 357.706 C 265.799 358.655,265.626 359.634,265.473 359.882 C 265.320 360.129,265.421 360.423,265.698 360.534 C 266.097 360.695,266.097 360.743,265.700 360.768 C 265.132 360.804,265.002 362.400,265.567 362.400 C 267.029 362.400,267.200 361.938,267.200 357.977 C 267.200 355.090,267.344 353.954,267.742 353.720 C 268.039 353.544,268.496 352.995,268.756 352.500 C 269.016 352.005,269.426 351.600,269.667 351.600 C 269.908 351.600,270.667 350.977,271.353 350.215 C 274.135 347.126,274.400 346.481,274.400 342.805 C 274.400 340.935,274.567 339.600,274.800 339.600 C 275.066 339.600,275.200 305.733,275.200 238.800 C 275.200 183.298,275.046 138.000,274.858 138.000 C 274.670 138.000,274.396 182.415,274.249 236.700 M48.120 144.000 C 48.120 145.210,48.195 145.705,48.287 145.100 C 48.378 144.495,48.378 143.505,48.287 142.900 C 48.195 142.295,48.120 142.790,48.120 144.000 M46.060 255.719 C 46.026 335.233,46.128 361.168,46.475 360.953 C 46.776 360.767,46.852 360.887,46.695 361.298 C 46.313 362.292,47.266 362.361,61.756 362.390 C 72.681 362.412,75.231 362.319,74.893 361.909 C 74.611 361.567,74.312 345.601,73.984 313.400 C 73.714 287.000,73.338 265.340,73.147 265.267 C 72.956 265.193,72.804 261.233,72.810 256.467 C 72.830 238.321,71.833 175.600,71.524 175.600 C 71.346 175.600,71.200 169.930,71.200 163.000 L 71.200 150.400 70.200 150.400 C 69.650 150.400,69.200 150.541,69.200 150.713 C 69.200 150.885,68.390 151.265,67.400 151.557 C 66.410 151.849,65.600 152.248,65.600 152.444 C 65.600 152.640,65.343 152.800,65.029 152.800 C 64.715 152.800,64.104 153.250,63.671 153.800 C 62.557 155.216,50.717 155.405,51.084 154.000 C 51.201 153.553,51.096 153.200,50.847 153.200 C 50.601 153.200,50.400 153.560,50.400 154.000 C 50.400 155.293,49.329 154.916,48.980 153.500 L 48.660 152.200 48.504 153.500 C 48.391 154.454,48.148 154.800,47.593 154.800 C 46.845 154.800,46.801 154.680,46.261 151.200 C 46.175 150.650,46.085 197.684,46.060 255.719 " stroke="none" fill="#0b66b2" fill-rule="evenodd"></path><path id="path4" d="M75.752 88.115 C 76.408 88.595,76.453 89.907,76.415 107.277 C 76.392 117.896,76.528 125.984,76.731 126.062 C 76.936 126.141,77.306 156.097,77.600 196.400 C 77.881 235.010,78.241 266.690,78.401 266.800 C 78.560 266.910,78.821 288.150,78.981 314.000 C 79.141 339.850,79.326 361.055,79.392 361.123 C 79.458 361.190,92.717 361.109,108.856 360.943 C 124.995 360.776,137.660 360.517,137.000 360.367 L 135.800 360.095 136.900 360.047 C 137.505 360.021,138.000 359.820,138.000 359.600 C 138.000 359.374,139.349 359.168,141.100 359.127 L 144.200 359.053 141.000 358.800 L 137.800 358.547 142.400 358.394 L 147.000 358.240 142.400 358.000 C 137.811 357.760,137.808 357.759,141.200 357.674 C 143.211 357.623,144.384 357.451,144.072 357.253 C 143.093 356.632,147.583 356.408,163.000 356.310 L 178.200 356.213 160.400 356.000 L 142.600 355.787 157.600 355.601 L 172.600 355.414 157.200 355.200 L 141.800 354.986 156.500 354.893 L 171.200 354.800 171.200 350.600 L 171.200 346.400 179.600 346.400 L 188.000 346.400 188.000 342.200 L 188.000 338.000 200.600 338.000 L 213.200 338.000 213.200 333.800 L 213.200 329.600 225.608 329.600 L 238.016 329.600 237.908 337.870 L 237.800 346.140 235.652 346.623 C 234.471 346.889,233.391 347.281,233.252 347.494 C 233.114 347.706,232.589 348.097,232.087 348.361 C 231.585 348.625,231.213 349.057,231.260 349.321 C 231.308 349.584,231.121 350.832,230.846 352.094 C 230.571 353.356,230.456 354.567,230.591 354.786 C 230.726 355.005,230.630 355.570,230.377 356.043 C 230.120 356.524,230.073 357.011,230.272 357.151 C 230.466 357.288,230.635 358.361,230.645 359.535 C 230.668 361.959,231.058 362.385,233.261 362.394 L 234.723 362.400 234.652 358.556 L 234.582 354.712 236.185 353.109 C 237.768 351.526,237.792 351.518,238.055 352.453 C 238.245 353.130,238.332 352.859,238.360 351.500 C 238.382 350.455,238.580 349.600,238.800 349.600 C 239.064 349.600,239.200 336.800,239.200 312.000 C 239.200 287.200,239.064 274.400,238.800 274.400 C 238.538 274.400,238.400 265.700,238.400 249.100 C 238.400 235.185,238.280 210.165,238.134 193.500 L 237.868 163.200 229.534 163.200 L 221.200 163.200 221.200 167.200 L 221.200 171.200 189.600 171.200 C 168.800 171.200,158.000 171.337,158.000 171.600 C 158.000 171.861,151.631 172.001,139.700 172.003 C 111.894 172.008,113.606 171.030,113.602 186.900 L 113.600 196.000 134.300 196.094 C 148.969 196.161,151.300 196.221,142.300 196.300 L 129.600 196.411 129.600 200.606 L 129.600 204.800 117.200 204.800 L 104.800 204.800 104.800 209.000 L 104.800 213.200 92.200 213.200 L 79.600 213.200 79.521 217.300 C 79.400 223.511,78.924 161.829,78.858 131.500 C 78.820 114.005,78.662 104.800,78.400 104.800 C 78.157 104.800,78.000 103.000,78.000 100.200 C 78.000 96.790,78.129 95.598,78.500 95.594 C 78.834 95.590,78.801 95.457,78.400 95.194 C 77.867 94.844,77.867 94.756,78.400 94.406 C 78.820 94.130,78.846 94.010,78.488 94.006 C 78.121 94.002,77.996 93.317,78.048 91.593 C 78.088 90.270,78.005 89.071,77.864 88.930 C 77.722 88.789,77.807 88.432,78.052 88.137 C 78.413 87.702,78.171 87.600,76.773 87.600 C 75.267 87.600,75.137 87.666,75.752 88.115 M104.428 88.480 C 104.174 91.007,105.962 94.216,107.940 94.783 C 109.654 95.274,236.109 95.300,235.805 94.808 C 235.666 94.584,235.308 94.400,235.010 94.400 C 234.711 94.400,234.407 94.227,234.333 94.015 C 234.105 93.353,135.169 93.404,134.760 94.065 C 134.325 94.769,111.870 94.851,110.364 94.154 C 109.834 93.908,108.865 93.458,108.212 93.154 C 106.550 92.379,105.624 91.375,104.996 89.668 C 104.699 88.861,104.444 88.326,104.428 88.480 M251.200 93.340 C 251.200 93.703,254.246 96.800,254.604 96.800 C 255.498 96.800,258.423 100.536,258.847 102.219 C 259.093 103.199,259.454 104.000,259.647 104.000 C 260.077 104.000,260.130 346.276,259.700 346.467 C 259.535 346.540,259.058 347.569,258.641 348.753 C 257.866 350.950,256.115 353.015,254.500 353.635 C 254.005 353.825,253.593 354.300,253.585 354.690 C 253.495 358.934,253.307 361.503,253.056 361.909 C 252.607 362.636,254.716 362.541,255.457 361.800 C 255.787 361.470,255.875 361.200,255.651 361.200 C 255.425 361.200,255.306 360.538,255.382 359.700 C 255.457 358.875,255.537 357.277,255.559 356.149 C 255.596 354.300,255.710 354.052,256.711 353.637 C 257.424 353.342,258.083 352.573,258.552 351.488 C 258.954 350.560,259.453 349.694,259.661 349.564 C 261.278 348.557,261.357 102.369,259.740 101.261 C 259.530 101.117,259.045 100.161,258.660 99.136 C 258.141 97.752,257.618 97.110,256.624 96.638 C 255.889 96.289,255.183 95.733,255.056 95.402 C 254.929 95.071,254.558 94.800,254.232 94.800 C 253.906 94.800,253.496 94.554,253.320 94.252 C 253.012 93.725,251.200 92.945,251.200 93.340 M196.640 176.561 C 196.759 176.869,197.216 177.216,197.657 177.331 C 198.098 177.446,198.557 177.914,198.676 178.370 C 198.796 178.827,199.052 179.200,199.247 179.200 C 199.441 179.200,199.600 181.180,199.600 183.600 C 199.600 186.267,199.442 188.000,199.200 188.000 C 198.980 188.000,198.800 188.244,198.800 188.542 C 198.800 188.840,198.225 189.560,197.523 190.142 L 196.246 191.200 158.620 191.200 L 120.994 191.200 119.697 189.787 L 118.400 188.373 118.400 183.676 C 118.400 178.828,118.858 177.200,120.223 177.200 C 120.540 177.200,120.800 177.021,120.800 176.803 C 120.800 176.545,130.165 176.369,147.500 176.300 C 162.185 176.242,179.201 176.151,185.313 176.097 C 194.539 176.016,196.462 176.095,196.640 176.561 M93.670 361.900 C 101.739 361.960,115.059 361.960,123.270 361.900 C 131.482 361.839,124.880 361.790,108.600 361.790 C 92.320 361.790,85.602 361.839,93.670 361.900 " stroke="none" fill="#28afe8" fill-rule="evenodd"></path><path id="path5" d="M106.000 37.987 C 106.000 38.201,105.746 38.278,105.436 38.159 C 104.675 37.867,104.193 39.469,104.816 40.219 C 105.081 40.539,105.133 40.800,104.932 40.800 C 104.434 40.800,104.374 42.720,104.134 66.637 L 103.924 87.474 105.830 88.737 C 106.879 89.432,107.976 90.000,108.269 90.000 C 108.561 90.000,108.800 90.159,108.800 90.353 C 108.800 91.273,114.484 91.385,171.315 91.586 C 216.735 91.746,232.102 91.917,232.316 92.264 C 232.474 92.519,234.087 92.857,235.901 93.016 L 239.200 93.303 239.200 92.252 C 239.200 91.673,239.020 91.200,238.800 91.200 C 238.580 91.200,238.394 90.885,238.387 90.500 C 238.370 89.524,237.166 88.046,236.921 88.700 C 236.677 89.352,234.802 89.352,234.794 88.700 C 234.790 88.367,234.658 88.400,234.400 88.800 C 234.142 89.200,234.010 89.233,234.006 88.900 C 234.001 88.505,227.930 88.400,205.000 88.400 C 185.933 88.400,176.000 88.537,176.000 88.800 C 176.000 89.061,169.333 89.200,156.800 89.200 C 140.000 89.200,137.600 89.125,137.600 88.600 C 137.600 88.270,137.442 88.000,137.250 88.000 C 137.057 88.000,136.579 86.335,136.187 84.300 C 135.796 82.265,135.344 80.510,135.183 80.400 C 135.022 80.290,134.654 78.490,134.366 76.400 C 134.078 74.310,133.703 72.503,133.534 72.385 C 133.365 72.266,133.207 64.500,133.184 55.126 L 133.142 38.082 131.330 37.810 C 128.774 37.427,109.147 37.656,108.300 38.078 C 107.859 38.299,107.600 38.275,107.600 38.014 C 107.600 37.786,107.240 37.600,106.800 37.600 C 106.360 37.600,106.000 37.774,106.000 37.987 M353.299 39.079 C 353.385 39.782,353.308 40.267,353.128 40.155 C 352.947 40.044,352.800 40.143,352.800 40.376 C 352.800 40.609,353.070 40.800,353.400 40.800 C 354.097 40.800,354.200 39.302,353.566 38.400 C 353.241 37.939,353.179 38.096,353.299 39.079 M105.772 38.755 C 105.893 38.950,105.738 39.320,105.428 39.577 C 104.918 40.000,104.827 39.620,105.169 38.500 C 105.236 38.281,105.565 38.420,105.772 38.755 M48.000 88.000 C 48.776 88.501,49.200 88.501,49.200 88.000 C 49.200 87.780,48.795 87.603,48.300 87.606 C 47.572 87.611,47.515 87.686,48.000 88.000 M253.502 88.555 C 253.147 88.910,252.664 89.200,252.429 89.200 C 252.193 89.200,252.000 89.538,252.000 89.950 C 252.000 90.363,251.896 91.221,251.768 91.858 L 251.537 93.017 257.142 92.905 C 260.877 92.831,263.100 92.954,263.802 93.274 C 265.036 93.836,268.800 97.386,268.800 97.988 C 268.800 98.214,268.966 98.400,269.169 98.400 C 269.738 98.400,272.800 101.658,272.800 102.264 C 272.800 102.559,272.972 102.800,273.181 102.800 C 273.827 102.800,274.395 105.648,274.398 108.900 C 274.399 110.699,274.568 112.000,274.800 112.000 C 275.066 112.000,275.200 150.200,275.200 225.800 C 275.200 301.400,275.066 339.600,274.800 339.600 C 274.567 339.600,274.400 340.935,274.400 342.805 C 274.400 346.481,274.135 347.126,271.353 350.215 C 270.667 350.977,269.908 351.600,269.667 351.600 C 269.426 351.600,269.016 352.005,268.756 352.500 C 268.496 352.995,268.039 353.544,267.742 353.720 C 267.344 353.955,267.200 355.092,267.200 357.987 C 267.200 360.770,267.053 361.993,266.700 362.135 C 266.425 362.246,268.668 362.351,271.683 362.368 L 277.167 362.400 277.167 358.221 C 277.167 354.160,277.420 353.079,278.700 351.687 C 278.975 351.388,279.200 350.616,279.200 349.971 C 279.200 349.181,279.401 348.800,279.819 348.800 C 280.159 348.800,280.744 348.261,281.119 347.603 C 281.493 346.944,281.922 346.404,282.071 346.403 C 282.221 346.401,282.569 345.365,282.847 344.100 C 283.124 342.835,283.467 341.710,283.610 341.600 C 283.968 341.325,284.800 337.867,284.800 336.656 C 284.800 336.112,285.025 335.591,285.300 335.500 C 285.893 335.302,285.817 309.582,285.223 309.214 C 285.031 309.096,284.722 299.677,284.537 288.285 C 284.303 273.912,284.064 267.483,283.757 267.285 C 283.258 266.964,282.959 255.214,282.539 219.500 C 282.395 207.235,282.124 197.200,281.938 197.200 C 281.752 197.200,281.595 193.195,281.588 188.300 C 281.582 183.405,281.414 177.150,281.216 174.400 C 281.018 171.650,280.727 163.505,280.569 156.300 C 280.412 149.095,280.129 143.200,279.941 143.200 C 279.754 143.200,279.586 139.105,279.569 134.100 C 279.507 115.787,278.990 99.063,278.481 98.894 C 278.216 98.805,278.000 98.386,278.000 97.961 C 278.000 97.165,277.349 95.813,276.537 94.924 C 276.283 94.646,275.848 93.904,275.570 93.277 C 275.292 92.649,274.551 91.908,273.923 91.630 C 273.296 91.352,272.533 90.876,272.228 90.571 C 271.923 90.266,270.802 89.791,269.737 89.515 C 268.672 89.239,267.675 88.836,267.523 88.620 C 266.996 87.872,254.244 87.813,253.502 88.555 M312.142 354.206 C 312.014 354.539,312.003 355.169,312.117 355.606 C 312.232 356.042,312.170 356.495,311.980 356.612 C 311.476 356.924,311.990 358.000,312.643 358.000 C 313.052 358.000,313.200 357.414,313.200 355.800 C 313.200 353.703,312.652 352.877,312.142 354.206 M311.800 358.800 C 311.664 359.020,311.739 359.200,311.966 359.200 C 312.245 359.200,312.253 359.534,311.991 360.223 C 311.734 360.899,311.737 361.162,312.001 360.999 C 312.221 360.864,312.400 360.943,312.400 361.176 C 312.400 361.409,312.567 361.600,312.771 361.600 C 312.976 361.600,313.111 360.881,313.071 360.001 C 313.004 358.485,312.367 357.883,311.800 358.800 M352.886 360.133 C 352.966 361.102,354.000 361.474,354.000 360.533 C 354.000 360.240,353.809 360.000,353.576 360.000 C 353.343 360.000,353.264 359.820,353.400 359.600 C 353.536 359.380,353.459 359.200,353.228 359.200 C 352.998 359.200,352.844 359.620,352.886 360.133 M351.519 361.014 C 351.078 361.455,351.643 362.400,352.343 362.394 C 352.756 362.390,352.837 362.279,352.560 362.094 C 352.318 361.932,352.044 361.564,351.952 361.275 C 351.859 360.986,351.664 360.869,351.519 361.014 " stroke="none" fill="#7024d0" fill-rule="evenodd"></path><path id="path6" d="M77.953 88.300 C 77.927 88.465,77.947 88.780,77.998 89.000 C 78.050 89.220,78.065 90.435,78.034 91.700 C 77.993 93.330,78.125 94.002,78.488 94.006 C 78.846 94.010,78.820 94.130,78.400 94.406 C 77.867 94.756,77.867 94.844,78.400 95.194 C 78.801 95.457,78.834 95.590,78.500 95.594 C 78.129 95.598,78.000 96.790,78.000 100.200 C 78.000 102.981,78.157 104.800,78.397 104.800 C 78.656 104.800,78.833 115.301,78.905 134.900 C 78.991 158.336,79.014 156.522,79.008 126.705 L 79.000 88.411 91.600 88.300 L 104.200 88.188 91.100 88.094 C 83.895 88.042,77.979 88.135,77.953 88.300 M230.430 110.100 L 230.400 112.400 234.300 112.349 L 238.200 112.299 235.634 111.966 C 234.223 111.784,232.963 111.473,232.834 111.277 C 232.705 111.081,232.342 110.837,232.028 110.736 C 231.713 110.635,231.231 109.933,230.958 109.176 L 230.461 107.800 230.430 110.100 M213.200 117.200 L 213.200 121.200 204.800 121.200 L 196.400 121.200 196.400 125.400 L 196.400 129.600 183.800 129.600 L 171.200 129.600 171.200 133.800 L 171.200 138.000 158.800 138.000 L 146.400 138.000 146.400 142.200 L 146.400 146.400 133.800 146.400 L 121.200 146.400 121.200 150.600 L 121.200 154.800 113.000 154.800 L 104.800 154.800 104.800 159.000 L 104.800 163.200 92.262 163.200 L 79.725 163.200 79.462 169.264 C 79.318 172.599,79.238 185.694,79.284 198.364 C 79.331 211.034,79.427 219.555,79.498 217.300 L 79.628 213.200 92.214 213.200 L 104.800 213.200 104.800 209.000 L 104.800 204.800 117.200 204.800 L 129.600 204.800 129.600 200.606 L 129.600 196.411 142.300 196.300 C 151.300 196.221,148.969 196.161,134.300 196.094 L 113.600 196.000 113.602 186.900 C 113.606 171.030,111.894 172.008,139.700 172.003 C 151.631 172.001,158.000 171.861,158.000 171.600 C 158.000 171.337,168.800 171.200,189.600 171.200 L 221.200 171.200 221.200 167.200 L 221.200 163.200 229.600 163.200 L 238.000 163.200 238.000 138.200 L 238.000 113.200 225.600 113.200 L 213.200 113.200 213.200 117.200 " stroke="none" fill="#2cbcec" fill-rule="evenodd"></path><path id="path7" d="M54.868 88.500 C 54.169 89.192,54.020 89.238,54.222 88.700 C 54.374 88.296,54.298 88.000,54.043 88.000 C 53.799 88.000,53.600 88.205,53.600 88.456 C 53.600 89.386,52.297 89.954,51.650 89.307 C 51.030 88.687,49.981 89.500,50.012 90.576 C 50.019 90.809,50.208 90.685,50.432 90.300 C 50.656 89.915,51.024 89.600,51.248 89.600 C 51.801 89.600,50.422 90.950,49.771 91.045 C 49.479 91.088,49.349 90.878,49.470 90.561 C 49.589 90.252,49.465 90.000,49.196 90.000 C 48.892 90.000,48.778 90.372,48.894 90.980 C 48.997 91.519,48.973 91.948,48.841 91.933 C 48.109 91.849,47.600 92.050,47.600 92.424 C 47.600 92.657,47.780 92.736,48.000 92.600 C 48.220 92.464,48.400 92.459,48.400 92.589 C 48.400 92.719,47.995 92.989,47.500 93.188 C 46.740 93.493,46.716 93.553,47.349 93.575 C 47.946 93.595,48.003 93.714,47.632 94.161 C 47.275 94.592,47.287 94.770,47.683 94.930 C 48.003 95.058,47.924 95.149,47.476 95.168 C 47.078 95.186,46.866 95.383,47.004 95.607 C 47.142 95.830,47.436 95.901,47.657 95.765 C 47.878 95.628,47.822 95.895,47.533 96.358 C 47.244 96.821,46.860 97.200,46.680 97.200 C 46.500 97.200,46.456 97.032,46.583 96.828 C 46.709 96.623,46.602 96.325,46.344 96.165 C 46.007 95.957,45.958 96.147,46.169 96.837 C 46.711 98.605,46.874 99.933,46.434 99.000 C 46.068 98.224,46.055 98.227,46.028 99.076 C 46.013 99.558,46.180 100.064,46.400 100.200 C 46.620 100.336,46.787 100.752,46.772 101.124 C 46.749 101.668,46.683 101.645,46.432 101.002 C 46.249 100.531,46.095 101.980,46.059 104.526 C 46.011 107.895,46.108 108.782,46.499 108.548 C 46.870 108.325,46.864 108.415,46.475 108.894 C 45.882 109.626,45.978 152.203,46.576 153.900 C 47.074 155.312,48.319 155.054,48.504 153.500 L 48.660 152.200 48.980 153.500 C 49.329 154.916,50.400 155.293,50.400 154.000 C 50.400 153.560,50.601 153.200,50.847 153.200 C 51.096 153.200,51.201 153.553,51.084 154.000 C 50.717 155.405,62.557 155.216,63.671 153.800 C 64.104 153.250,64.715 152.800,65.029 152.800 C 65.343 152.800,65.600 152.640,65.600 152.444 C 65.600 152.248,66.410 151.849,67.400 151.557 C 68.390 151.265,69.200 150.885,69.200 150.713 C 69.200 150.541,69.650 150.400,70.200 150.400 L 71.200 150.400 71.200 163.000 C 71.200 169.930,71.346 175.600,71.524 175.600 C 71.833 175.600,72.830 238.321,72.810 256.467 C 72.804 261.233,72.956 265.193,73.147 265.267 C 73.338 265.340,73.714 287.000,73.984 313.400 C 74.497 363.732,74.433 362.400,76.349 362.400 L 77.400 362.400 77.285 334.115 C 77.222 318.558,77.024 305.732,76.846 305.614 C 76.667 305.497,76.408 292.350,76.270 276.400 C 75.855 228.374,75.103 181.808,74.741 181.667 C 74.553 181.593,74.404 178.263,74.409 174.267 C 74.424 161.853,73.472 121.411,73.160 121.196 C 72.997 121.084,72.755 113.524,72.622 104.396 L 72.380 87.800 69.797 87.682 C 68.377 87.617,66.897 87.732,66.508 87.937 C 66.067 88.169,64.838 88.163,63.255 87.921 C 61.470 87.647,60.579 87.661,60.275 87.965 C 60.036 88.204,59.651 88.397,59.420 88.394 C 59.189 88.391,59.270 88.213,59.600 88.000 C 60.095 87.680,60.056 87.611,59.380 87.606 C 58.929 87.603,58.344 87.816,58.080 88.080 C 57.707 88.453,57.493 88.453,57.120 88.080 C 56.425 87.385,55.895 87.484,54.868 88.500 M105.061 88.615 C 105.390 89.471,108.749 91.554,110.257 91.837 C 110.996 91.976,111.600 92.249,111.600 92.445 C 111.600 92.642,116.035 92.800,121.600 92.800 C 127.549 92.800,131.600 92.648,131.600 92.425 C 131.600 92.219,132.185 91.978,132.900 91.889 C 133.615 91.801,129.285 91.699,123.277 91.664 C 112.929 91.603,108.800 91.229,108.800 90.353 C 108.800 90.159,108.555 90.000,108.256 90.000 C 107.957 90.000,107.067 89.563,106.279 89.028 C 105.419 88.444,104.932 88.279,105.061 88.615 M233.885 93.473 C 234.292 93.873,235.114 94.455,235.712 94.768 C 236.310 95.080,236.800 95.485,236.800 95.668 C 236.800 96.283,237.551 96.007,238.649 94.990 C 240.069 93.673,239.655 93.357,236.073 93.021 C 233.241 92.755,233.170 92.770,233.885 93.473 M253.510 93.023 C 253.201 93.332,256.233 96.293,257.159 96.587 C 257.516 96.700,258.140 97.560,258.545 98.497 C 258.951 99.433,259.444 100.301,259.643 100.425 C 260.679 101.070,260.775 111.689,260.775 225.200 C 260.775 337.512,260.673 349.270,259.690 349.975 C 259.519 350.099,259.048 350.949,258.644 351.865 C 258.240 352.781,257.564 353.621,257.142 353.731 C 256.520 353.894,256.404 354.210,256.535 355.398 C 256.640 356.345,256.516 356.934,256.187 357.060 C 255.778 357.217,255.787 357.468,256.228 358.318 C 256.713 359.255,256.699 359.425,256.107 359.756 C 255.496 360.098,255.506 360.159,256.218 360.438 C 256.987 360.739,256.986 360.745,256.200 360.812 C 255.520 360.870,255.551 360.928,256.400 361.200 L 257.400 361.520 256.300 361.560 C 255.695 361.582,255.200 361.784,255.200 362.009 C 255.200 362.270,257.012 362.392,260.200 362.345 C 264.676 362.280,265.200 362.199,265.200 361.570 C 265.200 361.183,265.425 360.776,265.700 360.665 C 266.085 360.510,266.079 360.456,265.676 360.432 C 265.371 360.413,265.278 360.198,265.452 359.916 C 265.617 359.650,265.799 358.655,265.858 357.706 C 265.917 356.756,266.074 355.804,266.206 355.590 C 266.339 355.375,266.273 355.200,266.061 355.200 C 265.849 355.200,265.769 354.840,265.884 354.400 C 265.999 353.960,266.258 353.600,266.459 353.600 C 266.660 353.600,266.940 353.285,267.080 352.900 C 267.349 352.159,269.546 350.000,270.030 350.000 C 270.592 350.000,272.800 347.667,272.800 347.073 C 272.800 346.739,272.961 346.407,273.157 346.333 C 273.865 346.069,273.986 333.909,274.249 236.700 C 274.396 182.415,274.670 138.000,274.858 138.000 C 275.046 138.000,275.200 132.150,275.200 125.000 C 275.200 116.600,275.058 112.000,274.800 112.000 C 274.568 112.000,274.399 110.699,274.398 108.900 C 274.395 105.648,273.827 102.800,273.181 102.800 C 272.972 102.800,272.800 102.559,272.800 102.264 C 272.800 101.658,269.738 98.400,269.169 98.400 C 268.966 98.400,268.800 98.214,268.800 97.988 C 268.800 97.414,265.062 93.848,263.911 93.323 C 262.888 92.857,253.934 92.599,253.510 93.023 M48.287 145.100 C 48.195 145.705,48.120 145.210,48.120 144.000 C 48.120 142.790,48.195 142.295,48.287 142.900 C 48.378 143.505,48.378 144.495,48.287 145.100 M236.189 353.105 C 234.630 354.665,234.601 354.746,234.650 357.447 C 234.749 362.868,234.554 362.400,236.707 362.400 L 238.615 362.400 238.477 358.100 C 238.402 355.735,238.214 353.286,238.059 352.658 L 237.779 351.515 236.189 353.105 " stroke="none" fill="#1682bc" fill-rule="evenodd"></path><path id="path8" d="M64.000 88.001 C 64.990 88.166,66.070 88.149,66.400 87.963 C 66.774 87.752,66.097 87.639,64.600 87.662 L 62.200 87.700 64.000 88.001 M72.619 104.296 C 72.753 113.479,72.997 121.084,73.160 121.196 C 73.472 121.411,74.424 161.848,74.409 174.267 C 74.404 178.263,74.553 181.593,74.741 181.667 C 75.103 181.808,75.855 228.374,76.270 276.400 C 76.408 292.350,76.670 305.498,76.852 305.619 C 77.034 305.739,77.196 318.301,77.210 333.535 C 77.225 348.768,77.339 361.496,77.462 361.818 C 77.659 362.330,87.437 362.403,154.744 362.394 C 200.063 362.387,231.566 362.236,231.233 362.026 C 230.863 361.794,230.658 360.926,230.645 359.535 C 230.635 358.361,230.466 357.288,230.272 357.151 C 230.073 357.011,230.120 356.524,230.377 356.043 C 230.630 355.570,230.726 355.005,230.591 354.786 C 230.456 354.567,230.571 353.356,230.846 352.094 C 231.121 350.832,231.308 349.584,231.260 349.321 C 231.213 349.057,231.585 348.625,232.087 348.361 C 232.589 348.097,233.114 347.706,233.252 347.494 C 233.391 347.281,234.471 346.889,235.652 346.623 L 237.800 346.140 237.908 337.870 L 238.016 329.600 225.608 329.600 L 213.200 329.600 213.200 333.800 L 213.200 338.000 200.600 338.000 L 188.000 338.000 188.000 342.200 L 188.000 346.400 179.600 346.400 L 171.200 346.400 171.200 350.600 L 171.200 354.800 156.500 354.893 L 141.800 354.986 157.200 355.200 L 172.600 355.414 157.600 355.601 L 142.600 355.787 160.400 356.000 L 178.200 356.213 163.000 356.310 C 147.583 356.408,143.093 356.632,144.072 357.253 C 144.384 357.451,143.211 357.623,141.200 357.674 C 137.808 357.759,137.811 357.760,142.400 358.000 L 147.000 358.240 142.400 358.394 L 137.800 358.547 141.000 358.800 L 144.200 359.053 141.100 359.127 C 139.349 359.168,138.000 359.374,138.000 359.600 C 138.000 359.820,137.505 360.021,136.900 360.047 L 135.800 360.095 137.000 360.367 C 137.660 360.517,124.995 360.776,108.856 360.943 C 92.717 361.109,79.458 361.190,79.392 361.123 C 79.326 361.055,79.141 339.850,78.981 314.000 C 78.821 288.150,78.560 266.910,78.401 266.800 C 78.241 266.690,77.881 235.010,77.600 196.400 C 77.306 156.097,76.936 126.141,76.731 126.062 C 76.528 125.984,76.392 117.896,76.415 107.277 C 76.461 86.488,76.614 87.600,73.711 87.600 L 72.375 87.600 72.619 104.296 M104.983 89.552 C 105.606 91.316,106.521 92.373,108.012 93.046 C 108.555 93.292,109.524 93.742,110.164 94.046 C 111.838 94.842,134.269 94.859,134.760 94.065 C 135.033 93.623,143.683 93.536,184.645 93.562 C 222.345 93.586,234.009 93.483,233.400 93.131 C 232.960 92.877,232.472 92.473,232.315 92.234 C 231.871 91.560,131.925 91.625,131.700 92.300 C 131.488 92.937,111.600 93.036,111.600 92.400 C 111.600 92.180,111.285 91.996,110.900 91.991 C 109.687 91.976,107.033 90.571,105.702 89.240 L 104.421 87.960 104.983 89.552 M252.400 93.490 C 252.730 93.615,253.144 93.961,253.320 94.259 C 253.496 94.556,253.894 94.800,254.206 94.800 C 254.517 94.800,254.965 95.160,255.200 95.600 C 255.435 96.040,255.831 96.400,256.079 96.400 C 256.327 96.400,255.773 95.680,254.848 94.800 C 253.923 93.920,252.859 93.214,252.483 93.232 C 251.930 93.257,251.914 93.306,252.400 93.490 M260.528 108.000 C 260.528 109.430,260.601 110.015,260.689 109.300 C 260.778 108.585,260.778 107.415,260.689 106.700 C 260.601 105.985,260.528 106.570,260.528 108.000 M147.500 176.300 C 130.165 176.369,120.800 176.545,120.800 176.803 C 120.800 177.021,120.540 177.200,120.223 177.200 C 118.858 177.200,118.400 178.828,118.400 183.676 L 118.400 188.373 119.697 189.787 L 120.994 191.200 158.620 191.200 L 196.246 191.200 197.523 190.142 C 198.225 189.560,198.800 188.840,198.800 188.542 C 198.800 188.244,198.980 188.000,199.200 188.000 C 199.442 188.000,199.600 186.267,199.600 183.600 C 199.600 181.180,199.441 179.200,199.247 179.200 C 199.052 179.200,198.796 178.827,198.676 178.370 C 198.557 177.914,198.098 177.446,197.657 177.331 C 197.216 177.216,196.759 176.869,196.640 176.561 C 196.462 176.095,194.539 176.016,185.313 176.097 C 179.201 176.151,162.185 176.242,147.500 176.300 M260.528 342.400 C 260.528 343.830,260.601 344.415,260.689 343.700 C 260.778 342.985,260.778 341.815,260.689 341.100 C 260.601 340.385,260.528 340.970,260.528 342.400 M256.100 353.865 C 255.441 354.131,255.417 357.328,256.075 357.108 C 256.337 357.021,256.562 356.196,256.575 355.275 C 256.589 354.354,256.600 353.614,256.600 353.632 C 256.600 353.649,256.375 353.754,256.100 353.865 M255.559 357.876 C 255.191 360.817,255.244 361.114,256.104 360.889 C 256.924 360.674,256.927 360.654,256.179 360.376 C 255.495 360.121,255.480 360.053,256.056 359.817 C 256.467 359.649,256.635 359.257,256.508 358.768 C 256.293 357.947,255.629 357.323,255.559 357.876 M123.270 361.900 C 115.059 361.960,101.739 361.960,93.670 361.900 C 85.602 361.839,92.320 361.790,108.600 361.790 C 124.880 361.790,131.482 361.839,123.270 361.900 " stroke="none" fill="#1c9ce4" fill-rule="evenodd"></path></g></svg>